<?xml version="1.0" encoding="utf-8" standalone="no"?>
<!DOCTYPE svg PUBLIC "-//W3C//DTD SVG 1.1//EN"
  "http://www.w3.org/Graphics/SVG/1.1/DTD/svg11.dtd">
<svg xmlns:xlink="http://www.w3.org/1999/xlink" width="864pt" height="648pt" viewBox="0 0 864 648" xmlns="http://www.w3.org/2000/svg" version="1.1">
 <metadata>
  <rdf:RDF xmlns:dc="http://purl.org/dc/elements/1.1/" xmlns:cc="http://creativecommons.org/ns#" xmlns:rdf="http://www.w3.org/1999/02/22-rdf-syntax-ns#">
   <cc:Work>
    <dc:type rdf:resource="http://purl.org/dc/dcmitype/StillImage"/>
    <dc:date>2026-10-07T17:54:51.726435</dc:date>
    <dc:format>image/svg+xml</dc:format>
    <dc:creator>
     <cc:Agent>
      <dc:title>Matplotlib v3.10.8, https://matplotlib.org/</dc:title>
     </cc:Agent>
    </dc:creator>
   </cc:Work>
  </rdf:RDF>
 </metadata>
 <defs>
  <style type="text/css">*{stroke-linejoin: round; stroke-linecap: butt}</style>
 </defs>
 <g id="figure_1">
  <g id="patch_1">
   <path d="M 0 648 
L 864 648 
L 864 0 
L 0 0 
z
" style="fill: #ffffff"/>
  </g>
  <g id="axes_1">
   <g id="text_1">
    <text style="font-size: 10px; font-family: 'DejaVu Sans'; text-anchor: middle; fill: #23313d" x="432" y="585.376175" transform="rotate(-0 432 585.376175)">Solve H Δx = −∇h; apply xnext = x + Δx. Check Hessian definiteness and globalization for general problems.</text>
   </g>
  </g>
  <g id="axes_2">
   <g id="patch_2">
    <path d="M 43.2 473.04 
L 397.44 473.04 
L 397.44 129.6 
L 43.2 129.6 
z
" style="fill: #ffffff"/>
   </g>
   <g id="matplotlib.axis_1">
    <g id="xtick_1">
     <g id="line2d_1">
      <path d="M 97.946182 473.04 
L 97.946182 129.6 
" clip-path="url(#pedbe747c35)" style="fill: none; stroke: #b0b0b0; stroke-opacity: 0.15; stroke-width: 0.8; stroke-linecap: square"/>
     </g>
     <g id="line2d_2">
      <defs>
       <path id="mb4eb7f718e" d="M 0 0 
L 0 3.5 
" style="stroke: #000000; stroke-width: 0.8"/>
      </defs>
      <g>
       <use xlink:href="#mb4eb7f718e" x="97.946182" y="473.04" style="stroke: #000000; stroke-width: 0.8"/>
      </g>
     </g>
     <g id="text_2">
      <text style="font-size: 9px; font-family: 'DejaVu Sans'; text-anchor: middle" x="97.946182" y="486.878594" transform="rotate(-0 97.946182 486.878594)">0.0</text>
     </g>
    </g>
    <g id="xtick_2">
     <g id="line2d_3">
      <path d="M 162.353455 473.04 
L 162.353455 129.6 
" clip-path="url(#pedbe747c35)" style="fill: none; stroke: #b0b0b0; stroke-opacity: 0.15; stroke-width: 0.8; stroke-linecap: square"/>
     </g>
     <g id="line2d_4">
      <g>
       <use xlink:href="#mb4eb7f718e" x="162.353455" y="473.04" style="stroke: #000000; stroke-width: 0.8"/>
      </g>
     </g>
     <g id="text_3">
      <text style="font-size: 9px; font-family: 'DejaVu Sans'; text-anchor: middle" x="162.353455" y="486.878594" transform="rotate(-0 162.353455 486.878594)">0.5</text>
     </g>
    </g>
    <g id="xtick_3">
     <g id="line2d_5">
      <path d="M 226.760727 473.04 
L 226.760727 129.6 
" clip-path="url(#pedbe747c35)" style="fill: none; stroke: #b0b0b0; stroke-opacity: 0.15; stroke-width: 0.8; stroke-linecap: square"/>
     </g>
     <g id="line2d_6">
      <g>
       <use xlink:href="#mb4eb7f718e" x="226.760727" y="473.04" style="stroke: #000000; stroke-width: 0.8"/>
      </g>
     </g>
     <g id="text_4">
      <text style="font-size: 9px; font-family: 'DejaVu Sans'; text-anchor: middle" x="226.760727" y="486.878594" transform="rotate(-0 226.760727 486.878594)">1.0</text>
     </g>
    </g>
    <g id="xtick_4">
     <g id="line2d_7">
      <path d="M 291.168 473.04 
L 291.168 129.6 
" clip-path="url(#pedbe747c35)" style="fill: none; stroke: #b0b0b0; stroke-opacity: 0.15; stroke-width: 0.8; stroke-linecap: square"/>
     </g>
     <g id="line2d_8">
      <g>
       <use xlink:href="#mb4eb7f718e" x="291.168" y="473.04" style="stroke: #000000; stroke-width: 0.8"/>
      </g>
     </g>
     <g id="text_5">
      <text style="font-size: 9px; font-family: 'DejaVu Sans'; text-anchor: middle" x="291.168" y="486.878594" transform="rotate(-0 291.168 486.878594)">1.5</text>
     </g>
    </g>
    <g id="xtick_5">
     <g id="line2d_9">
      <path d="M 355.575273 473.04 
L 355.575273 129.6 
" clip-path="url(#pedbe747c35)" style="fill: none; stroke: #b0b0b0; stroke-opacity: 0.15; stroke-width: 0.8; stroke-linecap: square"/>
     </g>
     <g id="line2d_10">
      <g>
       <use xlink:href="#mb4eb7f718e" x="355.575273" y="473.04" style="stroke: #000000; stroke-width: 0.8"/>
      </g>
     </g>
     <g id="text_6">
      <text style="font-size: 9px; font-family: 'DejaVu Sans'; text-anchor: middle" x="355.575273" y="486.878594" transform="rotate(-0 355.575273 486.878594)">2.0</text>
     </g>
    </g>
    <g id="text_7">
     <text style="font-size: 11px; font-family: 'DejaVu Sans'; text-anchor: middle" x="220.32" y="501.108594" transform="rotate(-0 220.32 501.108594)">x</text>
    </g>
   </g>
   <g id="matplotlib.axis_2">
    <g id="ytick_1">
     <g id="line2d_11">
      <path d="M 43.2 457.429091 
L 397.44 457.429091 
" clip-path="url(#pedbe747c35)" style="fill: none; stroke: #b0b0b0; stroke-opacity: 0.15; stroke-width: 0.8; stroke-linecap: square"/>
     </g>
     <g id="line2d_12">
      <defs>
       <path id="m417659f8ab" d="M 0 0 
L -3.5 0 
" style="stroke: #000000; stroke-width: 0.8"/>
      </defs>
      <g>
       <use xlink:href="#m417659f8ab" x="43.2" y="457.429091" style="stroke: #000000; stroke-width: 0.8"/>
      </g>
     </g>
     <g id="text_8">
      <text style="font-size: 9px; font-family: 'DejaVu Sans'; text-anchor: end" x="36.2" y="460.848388" transform="rotate(-0 36.2 460.848388)">0</text>
     </g>
    </g>
    <g id="ytick_2">
     <g id="line2d_13">
      <path d="M 43.2 381.981268 
L 397.44 381.981268 
" clip-path="url(#pedbe747c35)" style="fill: none; stroke: #b0b0b0; stroke-opacity: 0.15; stroke-width: 0.8; stroke-linecap: square"/>
     </g>
     <g id="line2d_14">
      <g>
       <use xlink:href="#m417659f8ab" x="43.2" y="381.981268" style="stroke: #000000; stroke-width: 0.8"/>
      </g>
     </g>
     <g id="text_9">
      <text style="font-size: 9px; font-family: 'DejaVu Sans'; text-anchor: end" x="36.2" y="385.400565" transform="rotate(-0 36.2 385.400565)">2</text>
     </g>
    </g>
    <g id="ytick_3">
     <g id="line2d_15">
      <path d="M 43.2 306.533445 
L 397.44 306.533445 
" clip-path="url(#pedbe747c35)" style="fill: none; stroke: #b0b0b0; stroke-opacity: 0.15; stroke-width: 0.8; stroke-linecap: square"/>
     </g>
     <g id="line2d_16">
      <g>
       <use xlink:href="#m417659f8ab" x="43.2" y="306.533445" style="stroke: #000000; stroke-width: 0.8"/>
      </g>
     </g>
     <g id="text_10">
      <text style="font-size: 9px; font-family: 'DejaVu Sans'; text-anchor: end" x="36.2" y="309.952741" transform="rotate(-0 36.2 309.952741)">4</text>
     </g>
    </g>
    <g id="ytick_4">
     <g id="line2d_17">
      <path d="M 43.2 231.085621 
L 397.44 231.085621 
" clip-path="url(#pedbe747c35)" style="fill: none; stroke: #b0b0b0; stroke-opacity: 0.15; stroke-width: 0.8; stroke-linecap: square"/>
     </g>
     <g id="line2d_18">
      <g>
       <use xlink:href="#m417659f8ab" x="43.2" y="231.085621" style="stroke: #000000; stroke-width: 0.8"/>
      </g>
     </g>
     <g id="text_11">
      <text style="font-size: 9px; font-family: 'DejaVu Sans'; text-anchor: end" x="36.2" y="234.504918" transform="rotate(-0 36.2 234.504918)">6</text>
     </g>
    </g>
    <g id="ytick_5">
     <g id="line2d_19">
      <path d="M 43.2 155.637798 
L 397.44 155.637798 
" clip-path="url(#pedbe747c35)" style="fill: none; stroke: #b0b0b0; stroke-opacity: 0.15; stroke-width: 0.8; stroke-linecap: square"/>
     </g>
     <g id="line2d_20">
      <g>
       <use xlink:href="#m417659f8ab" x="43.2" y="155.637798" style="stroke: #000000; stroke-width: 0.8"/>
      </g>
     </g>
     <g id="text_12">
      <text style="font-size: 9px; font-family: 'DejaVu Sans'; text-anchor: end" x="36.2" y="159.057095" transform="rotate(-0 36.2 159.057095)">8</text>
     </g>
    </g>
    <g id="text_13">
     <text style="font-size: 11px; font-family: 'DejaVu Sans'; text-anchor: middle" x="24.186094" y="301.32" transform="rotate(-90 24.186094 301.32)">y</text>
    </g>
   </g>
   <g id="line2d_21">
    <path d="M 59.301818 455.655124 
L 68.355049 456.407468 
L 77.40828 456.943518 
L 86.461512 457.278563 
L 96.808061 457.427618 
L 107.154611 457.332455 
L 117.501161 456.9894 
L 126.554392 456.475815 
L 135.607623 455.747862 
L 144.660854 454.785331 
L 152.420767 453.754241 
L 160.180679 452.512556 
L 167.940591 451.03786 
L 175.700504 449.304756 
L 182.167097 447.642724 
L 188.633691 445.763585 
L 195.100285 443.647899 
L 201.566878 441.274786 
L 208.033472 438.621931 
L 213.206747 436.282319 
L 218.380022 433.735672 
L 223.553297 430.96858 
L 228.726572 427.967038 
L 233.899847 424.716458 
L 239.073122 421.201659 
L 244.246396 417.406874 
L 249.419671 413.315746 
L 254.592946 408.911328 
L 259.766221 404.176086 
L 264.939496 399.091897 
L 270.112771 393.640049 
L 275.286046 387.80124 
L 280.459321 381.555582 
L 285.632596 374.882594 
L 290.805871 367.76121 
L 295.979146 360.169774 
L 301.152421 352.08604 
L 306.325696 343.487176 
L 311.49897 334.349757 
L 316.672245 324.649773 
L 321.84552 314.362624 
L 327.018795 303.463121 
L 332.19207 291.925485 
L 337.365345 279.72335 
L 342.53862 266.829761 
L 347.711895 253.217173 
L 352.88517 238.857453 
L 358.058445 223.72188 
L 363.23172 207.781143 
L 368.404995 191.005342 
L 373.578269 173.36399 
L 378.751544 154.826008 
L 381.338182 145.210909 
L 381.338182 145.210909 
" clip-path="url(#pedbe747c35)" style="fill: none; stroke: #235a78; stroke-width: 1.5; stroke-linecap: square"/>
   </g>
   <g id="patch_3">
    <path d="M 43.2 473.04 
L 43.2 129.6 
" style="fill: none; stroke: #000000; stroke-width: 1.1; stroke-linejoin: miter; stroke-linecap: square"/>
   </g>
   <g id="patch_4">
    <path d="M 43.2 473.04 
L 397.44 473.04 
" style="fill: none; stroke: #000000; stroke-width: 1.1; stroke-linejoin: miter; stroke-linecap: square"/>
   </g>
   <g id="patch_5">
    <path d="M 354.594008 232.829841 
Q 306.030849 319.151882 258.015879 404.499506 
" style="fill: none; stroke: #b47722; stroke-linecap: round"/>
    <path d="M 262.090665 401.7434 
L 258.015879 404.499506 
L 258.255866 399.586014 
" style="fill: none; stroke: #b47722; stroke-linecap: round"/>
   </g>
   <g id="patch_6">
    <path d="M 254.738123 408.183704 
Q 220.533241 427.092169 187.306839 445.45973 
" style="fill: none; stroke: #b47722; stroke-linecap: round"/>
    <path d="M 192.221985 445.256408 
L 187.306839 445.45973 
L 190.093269 441.40562 
" style="fill: none; stroke: #b47722; stroke-linecap: round"/>
   </g>
   <g id="patch_7">
    <path d="M 182.60572 447.30715 
Q 157.88743 451.549485 134.271063 455.602699 
" style="fill: none; stroke: #b47722; stroke-linecap: round"/>
    <path d="M 138.979796 457.026718 
L 134.271063 455.602699 
L 138.235518 452.690124 
" style="fill: none; stroke: #b47722; stroke-linecap: round"/>
   </g>
   <g id="text_14">
    <text style="font-size: 12px; font-family: 'DejaVu Sans'; text-anchor: middle" x="220.32" y="123.6" transform="rotate(-0 220.32 123.6)">1D: xnext = x − h′/h″</text>
   </g>
   <g id="PathCollection_1">
    <defs>
     <path id="med7a50b531" d="M 0 2.95804 
C 0.784481 2.95804 1.536938 2.646362 2.09165 2.09165 
C 2.646362 1.536938 2.95804 0.784481 2.95804 0 
C 2.95804 -0.784481 2.646362 -1.536938 2.09165 -2.09165 
C 1.536938 -2.646362 0.784481 -2.95804 0 -2.95804 
C -0.784481 -2.95804 -1.536938 -2.646362 -2.09165 -2.09165 
C -2.646362 -1.536938 -2.95804 -0.784481 -2.95804 0 
C -2.95804 0.784481 -2.646362 1.536938 -2.09165 2.09165 
C -1.536938 2.646362 -0.784481 2.95804 0 2.95804 
z
" style="stroke: #235a78"/>
    </defs>
    <g clip-path="url(#pedbe747c35)">
     <use xlink:href="#med7a50b531" x="355.575273" y="231.085621" style="fill: #235a78; stroke: #235a78"/>
    </g>
   </g>
   <g id="PathCollection_2">
    <g clip-path="url(#pedbe747c35)">
     <use xlink:href="#med7a50b531" x="256.487161" y="407.216836" style="fill: #235a78; stroke: #235a78"/>
    </g>
   </g>
   <g id="PathCollection_3">
    <g clip-path="url(#pedbe747c35)">
     <use xlink:href="#med7a50b531" x="184.576898" y="446.968842" style="fill: #235a78; stroke: #235a78"/>
    </g>
   </g>
   <g id="PathCollection_4">
    <defs>
     <path id="m41d90d0b37" d="M 0 2.95804 
C 0.784481 2.95804 1.536938 2.646362 2.09165 2.09165 
C 2.646362 1.536938 2.95804 0.784481 2.95804 0 
C 2.95804 -0.784481 2.646362 -1.536938 2.09165 -2.09165 
C 1.536938 -2.646362 0.784481 -2.95804 0 -2.95804 
C -0.784481 -2.95804 -1.536938 -2.646362 -2.09165 -2.09165 
C -2.646362 -1.536938 -2.95804 -0.784481 -2.95804 0 
C -2.95804 0.784481 -2.646362 1.536938 -2.09165 2.09165 
C -1.536938 2.646362 -0.784481 2.95804 0 2.95804 
z
" style="stroke: #a23b34"/>
    </defs>
    <g clip-path="url(#pedbe747c35)">
     <use xlink:href="#m41d90d0b37" x="97.946182" y="457.429091" style="fill: #a23b34; stroke: #a23b34"/>
    </g>
   </g>
  </g>
  <g id="axes_3">
   <g id="patch_8">
    <path d="M 492.48 425.21434 
L 820.8 425.21434 
L 820.8 177.42566 
L 492.48 177.42566 
z
" style="fill: #ffffff"/>
   </g>
   <g id="matplotlib.axis_3">
    <g id="xtick_6">
     <g id="line2d_22">
      <path d="M 523.453585 425.21434 
L 523.453585 177.42566 
" clip-path="url(#p3f5ef4e4c8)" style="fill: none; stroke: #b0b0b0; stroke-opacity: 0.15; stroke-width: 0.8; stroke-linecap: square"/>
     </g>
     <g id="line2d_23">
      <g>
       <use xlink:href="#mb4eb7f718e" x="523.453585" y="425.21434" style="stroke: #000000; stroke-width: 0.8"/>
      </g>
     </g>
     <g id="text_15">
      <text style="font-size: 9px; font-family: 'DejaVu Sans'; text-anchor: middle" x="523.453585" y="439.052933" transform="rotate(-0 523.453585 439.052933)">−2</text>
     </g>
    </g>
    <g id="xtick_7">
     <g id="line2d_24">
      <path d="M 585.400755 425.21434 
L 585.400755 177.42566 
" clip-path="url(#p3f5ef4e4c8)" style="fill: none; stroke: #b0b0b0; stroke-opacity: 0.15; stroke-width: 0.8; stroke-linecap: square"/>
     </g>
     <g id="line2d_25">
      <g>
       <use xlink:href="#mb4eb7f718e" x="585.400755" y="425.21434" style="stroke: #000000; stroke-width: 0.8"/>
      </g>
     </g>
     <g id="text_16">
      <text style="font-size: 9px; font-family: 'DejaVu Sans'; text-anchor: middle" x="585.400755" y="439.052933" transform="rotate(-0 585.400755 439.052933)">−1</text>
     </g>
    </g>
    <g id="xtick_8">
     <g id="line2d_26">
      <path d="M 647.347925 425.21434 
L 647.347925 177.42566 
" clip-path="url(#p3f5ef4e4c8)" style="fill: none; stroke: #b0b0b0; stroke-opacity: 0.15; stroke-width: 0.8; stroke-linecap: square"/>
     </g>
     <g id="line2d_27">
      <g>
       <use xlink:href="#mb4eb7f718e" x="647.347925" y="425.21434" style="stroke: #000000; stroke-width: 0.8"/>
      </g>
     </g>
     <g id="text_17">
      <text style="font-size: 9px; font-family: 'DejaVu Sans'; text-anchor: middle" x="647.347925" y="439.052933" transform="rotate(-0 647.347925 439.052933)">0</text>
     </g>
    </g>
    <g id="xtick_9">
     <g id="line2d_28">
      <path d="M 709.295094 425.21434 
L 709.295094 177.42566 
" clip-path="url(#p3f5ef4e4c8)" style="fill: none; stroke: #b0b0b0; stroke-opacity: 0.15; stroke-width: 0.8; stroke-linecap: square"/>
     </g>
     <g id="line2d_29">
      <g>
       <use xlink:href="#mb4eb7f718e" x="709.295094" y="425.21434" style="stroke: #000000; stroke-width: 0.8"/>
      </g>
     </g>
     <g id="text_18">
      <text style="font-size: 9px; font-family: 'DejaVu Sans'; text-anchor: middle" x="709.295094" y="439.052933" transform="rotate(-0 709.295094 439.052933)">1</text>
     </g>
    </g>
    <g id="xtick_10">
     <g id="line2d_30">
      <path d="M 771.242264 425.21434 
L 771.242264 177.42566 
" clip-path="url(#p3f5ef4e4c8)" style="fill: none; stroke: #b0b0b0; stroke-opacity: 0.15; stroke-width: 0.8; stroke-linecap: square"/>
     </g>
     <g id="line2d_31">
      <g>
       <use xlink:href="#mb4eb7f718e" x="771.242264" y="425.21434" style="stroke: #000000; stroke-width: 0.8"/>
      </g>
     </g>
     <g id="text_19">
      <text style="font-size: 9px; font-family: 'DejaVu Sans'; text-anchor: middle" x="771.242264" y="439.052933" transform="rotate(-0 771.242264 439.052933)">2</text>
     </g>
    </g>
    <g id="text_20">
     <text style="font-size: 11px; font-family: 'DejaVu Sans'; text-anchor: middle" x="656.64" y="453.282933" transform="rotate(-0 656.64 453.282933)">x</text>
    </g>
   </g>
   <g id="matplotlib.axis_4">
    <g id="ytick_6">
     <g id="line2d_32">
      <path d="M 492.48 425.21434 
L 820.8 425.21434 
" clip-path="url(#p3f5ef4e4c8)" style="fill: none; stroke: #b0b0b0; stroke-opacity: 0.15; stroke-width: 0.8; stroke-linecap: square"/>
     </g>
     <g id="line2d_33">
      <g>
       <use xlink:href="#m417659f8ab" x="492.48" y="425.21434" style="stroke: #000000; stroke-width: 0.8"/>
      </g>
     </g>
     <g id="text_21">
      <text style="font-size: 9px; font-family: 'DejaVu Sans'; text-anchor: end" x="485.48" y="428.633636" transform="rotate(-0 485.48 428.633636)">−2.0</text>
     </g>
    </g>
    <g id="ytick_7">
     <g id="line2d_34">
      <path d="M 492.48 394.240755 
L 820.8 394.240755 
" clip-path="url(#p3f5ef4e4c8)" style="fill: none; stroke: #b0b0b0; stroke-opacity: 0.15; stroke-width: 0.8; stroke-linecap: square"/>
     </g>
     <g id="line2d_35">
      <g>
       <use xlink:href="#m417659f8ab" x="492.48" y="394.240755" style="stroke: #000000; stroke-width: 0.8"/>
      </g>
     </g>
     <g id="text_22">
      <text style="font-size: 9px; font-family: 'DejaVu Sans'; text-anchor: end" x="485.48" y="397.660052" transform="rotate(-0 485.48 397.660052)">−1.5</text>
     </g>
    </g>
    <g id="ytick_8">
     <g id="line2d_36">
      <path d="M 492.48 363.26717 
L 820.8 363.26717 
" clip-path="url(#p3f5ef4e4c8)" style="fill: none; stroke: #b0b0b0; stroke-opacity: 0.15; stroke-width: 0.8; stroke-linecap: square"/>
     </g>
     <g id="line2d_37">
      <g>
       <use xlink:href="#m417659f8ab" x="492.48" y="363.26717" style="stroke: #000000; stroke-width: 0.8"/>
      </g>
     </g>
     <g id="text_23">
      <text style="font-size: 9px; font-family: 'DejaVu Sans'; text-anchor: end" x="485.48" y="366.686467" transform="rotate(-0 485.48 366.686467)">−1.0</text>
     </g>
    </g>
    <g id="ytick_9">
     <g id="line2d_38">
      <path d="M 492.48 332.293585 
L 820.8 332.293585 
" clip-path="url(#p3f5ef4e4c8)" style="fill: none; stroke: #b0b0b0; stroke-opacity: 0.15; stroke-width: 0.8; stroke-linecap: square"/>
     </g>
     <g id="line2d_39">
      <g>
       <use xlink:href="#m417659f8ab" x="492.48" y="332.293585" style="stroke: #000000; stroke-width: 0.8"/>
      </g>
     </g>
     <g id="text_24">
      <text style="font-size: 9px; font-family: 'DejaVu Sans'; text-anchor: end" x="485.48" y="335.712882" transform="rotate(-0 485.48 335.712882)">−0.5</text>
     </g>
    </g>
    <g id="ytick_10">
     <g id="line2d_40">
      <path d="M 492.48 301.32 
L 820.8 301.32 
" clip-path="url(#p3f5ef4e4c8)" style="fill: none; stroke: #b0b0b0; stroke-opacity: 0.15; stroke-width: 0.8; stroke-linecap: square"/>
     </g>
     <g id="line2d_41">
      <g>
       <use xlink:href="#m417659f8ab" x="492.48" y="301.32" style="stroke: #000000; stroke-width: 0.8"/>
      </g>
     </g>
     <g id="text_25">
      <text style="font-size: 9px; font-family: 'DejaVu Sans'; text-anchor: end" x="485.48" y="304.739297" transform="rotate(-0 485.48 304.739297)">0.0</text>
     </g>
    </g>
    <g id="ytick_11">
     <g id="line2d_42">
      <path d="M 492.48 270.346415 
L 820.8 270.346415 
" clip-path="url(#p3f5ef4e4c8)" style="fill: none; stroke: #b0b0b0; stroke-opacity: 0.15; stroke-width: 0.8; stroke-linecap: square"/>
     </g>
     <g id="line2d_43">
      <g>
       <use xlink:href="#m417659f8ab" x="492.48" y="270.346415" style="stroke: #000000; stroke-width: 0.8"/>
      </g>
     </g>
     <g id="text_26">
      <text style="font-size: 9px; font-family: 'DejaVu Sans'; text-anchor: end" x="485.48" y="273.765712" transform="rotate(-0 485.48 273.765712)">0.5</text>
     </g>
    </g>
    <g id="ytick_12">
     <g id="line2d_44">
      <path d="M 492.48 239.37283 
L 820.8 239.37283 
" clip-path="url(#p3f5ef4e4c8)" style="fill: none; stroke: #b0b0b0; stroke-opacity: 0.15; stroke-width: 0.8; stroke-linecap: square"/>
     </g>
     <g id="line2d_45">
      <g>
       <use xlink:href="#m417659f8ab" x="492.48" y="239.37283" style="stroke: #000000; stroke-width: 0.8"/>
      </g>
     </g>
     <g id="text_27">
      <text style="font-size: 9px; font-family: 'DejaVu Sans'; text-anchor: end" x="485.48" y="242.792127" transform="rotate(-0 485.48 242.792127)">1.0</text>
     </g>
    </g>
    <g id="ytick_13">
     <g id="line2d_46">
      <path d="M 492.48 208.399245 
L 820.8 208.399245 
" clip-path="url(#p3f5ef4e4c8)" style="fill: none; stroke: #b0b0b0; stroke-opacity: 0.15; stroke-width: 0.8; stroke-linecap: square"/>
     </g>
     <g id="line2d_47">
      <g>
       <use xlink:href="#m417659f8ab" x="492.48" y="208.399245" style="stroke: #000000; stroke-width: 0.8"/>
      </g>
     </g>
     <g id="text_28">
      <text style="font-size: 9px; font-family: 'DejaVu Sans'; text-anchor: end" x="485.48" y="211.818542" transform="rotate(-0 485.48 211.818542)">1.5</text>
     </g>
    </g>
    <g id="ytick_14">
     <g id="line2d_48">
      <path d="M 492.48 177.42566 
L 820.8 177.42566 
" clip-path="url(#p3f5ef4e4c8)" style="fill: none; stroke: #b0b0b0; stroke-opacity: 0.15; stroke-width: 0.8; stroke-linecap: square"/>
     </g>
     <g id="line2d_49">
      <g>
       <use xlink:href="#m417659f8ab" x="492.48" y="177.42566" style="stroke: #000000; stroke-width: 0.8"/>
      </g>
     </g>
     <g id="text_29">
      <text style="font-size: 9px; font-family: 'DejaVu Sans'; text-anchor: end" x="485.48" y="180.844957" transform="rotate(-0 485.48 180.844957)">2.0</text>
     </g>
    </g>
    <g id="text_30">
     <text style="font-size: 11px; font-family: 'DejaVu Sans'; text-anchor: middle" x="457.337812" y="301.32" transform="rotate(-90 457.337812 301.32)">y</text>
    </g>
   </g>
   <g id="QuadContourSet_1">
    <path d="M 655.722905 347.883822 
L 654.738116 347.693859 
L 653.888715 347.528207 
L 652.054525 347.026285 
L 650.220335 346.393099 
L 650.021456 346.309565 
L 648.386145 345.615366 
L 646.984908 344.92527 
L 646.551955 344.709745 
L 644.717765 343.667951 
L 644.518656 343.540976 
L 642.883575 342.487128 
L 642.419814 342.156682 
L 641.049385 341.169667 
L 640.545843 340.772387 
L 639.215196 339.711095 
L 638.842675 339.388093 
L 637.381006 338.106744 
L 637.272287 338.003799 
L 635.831392 336.619505 
L 635.546816 336.342587 
L 634.488706 335.23521 
L 633.712626 334.413517 
L 633.216112 333.850916 
L 632.0107 332.466622 
L 631.878436 332.311884 
L 630.893094 331.082327 
L 630.044246 330.009976 
L 629.811835 329.698033 
L 628.801331 328.313739 
L 628.210056 327.490575 
L 627.829669 326.929445 
L 626.91048 325.54515 
L 626.375866 324.724466 
L 626.028512 324.160856 
L 625.195283 322.776562 
L 624.541676 321.669052 
L 624.386787 321.392267 
L 623.634546 320.007973 
L 622.897901 318.623679 
L 622.707486 318.254465 
L 622.210352 317.239384 
L 621.551288 315.85509 
L 620.909627 314.470796 
L 620.873296 314.38923 
L 620.321513 313.086502 
L 619.753999 311.702207 
L 619.205557 310.317913 
L 619.039106 309.878575 
L 618.698207 308.933619 
L 618.220493 307.549324 
L 617.763395 306.16503 
L 617.327624 304.780736 
L 617.204916 304.36679 
L 616.930826 303.396441 
L 616.563117 302.012147 
L 616.21819 300.627853 
L 615.896817 299.243559 
L 615.599809 297.859264 
L 615.370726 296.690406 
L 615.330486 296.47497 
L 615.099199 295.090676 
L 614.893663 293.706381 
L 614.71475 292.322087 
L 614.563373 290.937793 
L 614.440486 289.553498 
L 614.347089 288.169204 
L 614.284227 286.78491 
L 614.252998 285.400616 
L 614.25455 284.016321 
L 614.29009 282.632027 
L 614.360883 281.247733 
L 614.468259 279.863438 
L 614.613616 278.479144 
L 614.798422 277.09485 
L 615.024223 275.710555 
L 615.292648 274.326261 
L 615.370726 273.977218 
L 615.623372 272.941967 
L 616.010417 271.557673 
L 616.450141 270.173378 
L 616.94493 268.789084 
L 617.204916 268.132303 
L 617.523165 267.40479 
L 618.191358 266.020495 
L 618.930387 264.636201 
L 619.039106 264.448414 
L 619.816314 263.251907 
L 620.803261 261.867613 
L 620.873296 261.776365 
L 622.006716 260.483318 
L 622.707486 259.746846 
L 623.425964 259.099024 
L 624.541676 258.166507 
L 625.18946 257.71473 
L 626.375866 256.943627 
L 627.552856 256.330435 
L 628.210056 256.009865 
L 630.044246 255.326984 
L 631.515371 254.946141 
L 631.878436 254.857651 
L 633.712626 254.58998 
L 635.546816 254.497686 
L 637.381006 254.569302 
L 639.215196 254.794342 
L 639.96069 254.946141 
L 641.049385 255.170258 
L 642.883575 255.689999 
L 644.690468 256.330435 
L 644.717765 256.340216 
L 646.551955 257.136731 
L 647.702962 257.71473 
L 648.386145 258.061493 
L 650.187116 259.099024 
L 650.220335 259.118369 
L 652.054525 260.317132 
L 652.284825 260.483318 
L 653.888715 261.653154 
L 654.157484 261.867613 
L 655.722905 263.130293 
L 655.861748 263.251907 
L 657.422493 264.636201 
L 657.557095 264.757145 
L 658.858248 266.020495 
L 659.391285 266.543998 
L 660.206918 267.40479 
L 661.225475 268.492245 
L 661.485461 268.789084 
L 662.678029 270.173378 
L 663.059665 270.623274 
L 663.803288 271.557673 
L 664.891482 272.941967 
L 664.893855 272.945055 
L 665.892551 274.326261 
L 666.728045 275.496755 
L 666.872149 275.710555 
L 667.782967 277.09485 
L 668.562235 278.297916 
L 668.673348 278.479144 
L 669.499312 279.863438 
L 670.311042 281.247733 
L 670.396425 281.39775 
L 671.062412 282.632027 
L 671.792763 284.016321 
L 672.230615 284.869076 
L 672.489898 285.400616 
L 673.14359 286.78491 
L 673.779896 288.169204 
L 674.064804 288.811203 
L 674.37819 289.553498 
L 674.941201 290.937793 
L 675.485189 292.322087 
L 675.898994 293.417324 
L 676.003026 293.706381 
L 676.47707 295.090676 
L 676.930579 296.47497 
L 677.362848 297.859264 
L 677.733184 299.11013 
L 677.77084 299.243559 
L 678.135783 300.627853 
L 678.47806 302.012147 
L 678.796908 303.396441 
L 679.091528 304.780736 
L 679.361083 306.16503 
L 679.567374 307.339301 
L 679.602532 307.549324 
L 679.806539 308.933619 
L 679.984097 310.317913 
L 680.134308 311.702207 
L 680.256229 313.086502 
L 680.348879 314.470796 
L 680.411225 315.85509 
L 680.442191 317.239384 
L 680.440644 318.623679 
L 680.405398 320.007973 
L 680.33521 321.392267 
L 680.228774 322.776562 
L 680.084716 324.160856 
L 679.901595 325.54515 
L 679.677894 326.929445 
L 679.567374 327.50925 
L 679.40041 328.313739 
L 679.067039 329.698033 
L 678.683845 331.082327 
L 678.248628 332.466622 
L 677.759056 333.850916 
L 677.733184 333.917407 
L 677.16717 335.23521 
L 676.506726 336.619505 
L 675.898994 337.774922 
L 675.764392 338.003799 
L 674.879284 339.388093 
L 674.064804 340.549891 
L 673.887484 340.772387 
L 672.694376 342.156682 
L 672.230615 342.653825 
L 671.268485 343.540976 
L 670.396425 344.286122 
L 669.503192 344.92527 
L 668.562235 345.552575 
L 667.153192 346.309565 
L 666.728045 346.523365 
L 664.893855 347.235218 
L 663.21296 347.693859 
L 663.059665 347.733231 
L 661.225475 348.024979 
L 659.391285 348.139757 
L 657.557095 348.089168 
L 655.722905 347.883822 
z
" clip-path="url(#p3f5ef4e4c8)" style="fill: none; stroke: #91a3ac; stroke-width: 1.5"/>
    <path d="M 659.391285 367.203727 
L 658.65337 367.073979 
L 657.557095 366.879718 
L 655.722905 366.451991 
L 653.888715 365.92807 
L 653.185185 365.689685 
L 652.054525 365.303653 
L 650.220335 364.584231 
L 649.591107 364.305391 
L 648.386145 363.767377 
L 646.675374 362.921096 
L 646.551955 362.859579 
L 644.717765 361.851579 
L 644.191283 361.536802 
L 642.883575 360.749026 
L 641.966704 360.152508 
L 641.049385 359.551149 
L 639.937454 358.768213 
L 639.215196 358.255749 
L 638.065728 357.383919 
L 637.381006 356.860562 
L 636.322884 355.999625 
L 635.546816 355.363253 
L 634.686829 354.61533 
L 633.712626 353.761414 
L 633.140245 353.231036 
L 631.878436 352.052558 
L 631.669368 351.846742 
L 630.27712 350.462448 
L 630.044246 350.228586 
L 628.955196 349.078153 
L 628.210056 348.284521 
L 627.68156 347.693859 
L 626.454034 346.309565 
L 626.375866 346.220237 
L 625.294107 344.92527 
L 624.541676 344.016791 
L 624.164699 343.540976 
L 623.081161 342.156682 
L 622.707486 341.67332 
L 622.040259 340.772387 
L 621.025674 339.388093 
L 620.873296 339.1769 
L 620.061342 338.003799 
L 619.112752 336.619505 
L 619.039106 336.510107 
L 618.214724 335.23521 
L 617.32932 333.850916 
L 617.204916 333.652769 
L 616.488737 332.466622 
L 615.663854 331.082327 
L 615.370726 330.581398 
L 614.873045 329.698033 
L 614.10616 328.313739 
L 613.536536 327.268477 
L 613.358462 326.929445 
L 612.647184 325.54515 
L 611.947426 324.160856 
L 611.702346 323.664967 
L 611.27886 322.776562 
L 610.633018 321.392267 
L 609.999571 320.007973 
L 609.868156 319.712955 
L 609.399843 318.623679 
L 608.818617 317.239384 
L 608.250615 315.85509 
L 608.033966 315.311454 
L 607.710405 314.470796 
L 607.192931 313.086502 
L 606.689467 311.702207 
L 606.200355 310.317913 
L 606.199777 310.316213 
L 605.745713 308.933619 
L 605.305847 307.549324 
L 604.881085 306.16503 
L 604.471794 304.780736 
L 604.365587 304.404844 
L 604.090211 303.396441 
L 603.728795 302.012147 
L 603.38357 300.627853 
L 603.054924 299.243559 
L 602.743257 297.859264 
L 602.531397 296.860407 
L 602.452377 296.47497 
L 602.187424 295.090676 
L 601.940148 293.706381 
L 601.71097 292.322087 
L 601.500325 290.937793 
L 601.308664 289.553498 
L 601.136451 288.169204 
L 600.984165 286.78491 
L 600.852302 285.400616 
L 600.741373 284.016321 
L 600.697207 283.330017 
L 600.653846 282.632027 
L 600.589317 281.247733 
L 600.546433 279.863438 
L 600.525729 278.479144 
L 600.527762 277.09485 
L 600.553104 275.710555 
L 600.602348 274.326261 
L 600.676108 272.941967 
L 600.697207 272.644677 
L 600.778744 271.557673 
L 600.909522 270.173378 
L 601.068189 268.789084 
L 601.255522 267.40479 
L 601.472327 266.020495 
L 601.719442 264.636201 
L 601.997736 263.251907 
L 602.30811 261.867613 
L 602.531397 260.964445 
L 602.658041 260.483318 
L 603.056254 259.099024 
L 603.491855 257.71473 
L 603.966034 256.330435 
L 604.365587 255.251815 
L 604.486919 254.946141 
L 605.075902 253.561847 
L 605.710749 252.177552 
L 606.199777 251.182146 
L 606.405924 250.793258 
L 607.186822 249.408964 
L 608.023417 248.02467 
L 608.033966 248.008133 
L 608.983453 246.640375 
L 609.868156 245.446005 
L 610.022442 245.256081 
L 611.210075 243.871787 
L 611.702346 243.329654 
L 612.550331 242.487492 
L 613.536536 241.560948 
L 614.083306 241.103198 
L 615.370726 240.080601 
L 615.889492 239.718904 
L 617.204916 238.846453 
L 618.101464 238.334609 
L 619.039106 237.824181 
L 620.873296 236.986525 
L 620.969779 236.950315 
L 622.707486 236.326611 
L 624.541676 235.815582 
L 625.770072 235.566021 
L 626.375866 235.448009 
L 628.210056 235.216662 
L 630.044246 235.109079 
L 631.878436 235.119461 
L 633.712626 235.242363 
L 635.546816 235.472673 
L 636.055576 235.566021 
L 637.381006 235.811103 
L 639.215196 236.251787 
L 641.049385 236.788092 
L 641.518234 236.950315 
L 642.883575 237.42632 
L 644.717765 238.157271 
L 645.111803 238.334609 
L 646.551955 238.98765 
L 648.009978 239.718904 
L 648.386145 239.909001 
L 650.220335 240.927405 
L 650.511145 241.103198 
L 652.054525 242.04321 
L 652.730591 242.487492 
L 653.888715 243.254354 
L 654.757577 243.871787 
L 655.722905 244.56303 
L 656.628965 245.256081 
L 657.557095 245.971498 
L 658.372771 246.640375 
L 659.391285 247.482088 
L 660.010663 248.02467 
L 661.225475 249.097206 
L 661.559668 249.408964 
L 663.031586 250.793258 
L 663.059665 250.819956 
L 664.414012 252.177552 
L 664.893855 252.662474 
L 665.740248 253.561847 
L 666.728045 254.620114 
L 667.018161 254.946141 
L 668.236303 256.330435 
L 668.562235 256.704954 
L 669.401422 257.71473 
L 670.396425 258.922269 
L 670.535791 259.099024 
L 671.611695 260.483318 
L 672.230615 261.287771 
L 672.65811 261.867613 
L 673.66576 263.251907 
L 674.064804 263.807466 
L 674.635997 264.636201 
L 675.578297 266.020495 
L 675.898994 266.498873 
L 676.482491 267.40479 
L 677.362202 268.789084 
L 677.733184 269.382273 
L 678.209108 270.173378 
L 679.02885 271.557673 
L 679.567374 272.481269 
L 679.826059 272.941967 
L 680.588314 274.326261 
L 681.33968 275.710555 
L 681.401564 275.827227 
L 682.049544 277.09485 
L 682.745142 278.479144 
L 683.235754 279.474767 
L 683.420521 279.863438 
L 684.062651 281.247733 
L 684.692396 282.632027 
L 685.069944 283.481776 
L 685.29922 284.016321 
L 685.877168 285.400616 
L 686.441914 286.78491 
L 686.904134 287.94724 
L 686.9894 288.169204 
L 687.504018 289.553498 
L 688.004659 290.937793 
L 688.490984 292.322087 
L 688.738324 293.050824 
L 688.953337 293.706381 
L 689.390799 295.090676 
L 689.813202 296.47497 
L 690.220185 297.859264 
L 690.572514 299.107045 
L 690.609776 299.243559 
L 690.969249 300.627853 
L 691.312588 302.012147 
L 691.639412 303.396441 
L 691.949322 304.780736 
L 692.241911 306.16503 
L 692.406704 306.997721 
L 692.512211 307.549324 
L 692.758158 308.933619 
L 692.986086 310.317913 
L 693.195564 311.702207 
L 693.386146 313.086502 
L 693.557374 314.470796 
L 693.708772 315.85509 
L 693.839851 317.239384 
L 693.950103 318.623679 
L 694.039006 320.007973 
L 694.106017 321.392267 
L 694.150579 322.776562 
L 694.17211 324.160856 
L 694.170014 325.54515 
L 694.143669 326.929445 
L 694.092435 328.313739 
L 694.015646 329.698033 
L 693.912613 331.082327 
L 693.782625 332.466622 
L 693.62494 333.850916 
L 693.438792 335.23521 
L 693.223386 336.619505 
L 692.977896 338.003799 
L 692.701466 339.388093 
L 692.406704 340.712323 
L 692.392484 340.772387 
L 692.033029 342.156682 
L 691.63764 343.540976 
L 691.205193 344.92527 
L 690.734519 346.309565 
L 690.572514 346.75237 
L 690.203609 347.693859 
L 689.619264 349.078153 
L 688.989532 350.462448 
L 688.738324 350.980078 
L 688.284793 351.846742 
L 687.51071 353.231036 
L 686.904134 354.247219 
L 686.665478 354.61533 
L 685.713886 355.999625 
L 685.069944 356.88039 
L 684.666586 357.383919 
L 683.491667 358.768213 
L 683.235754 359.053981 
L 682.14614 360.152508 
L 681.401564 360.862522 
L 680.609205 361.536802 
L 679.567374 362.377832 
L 678.802134 362.921096 
L 677.733184 363.642892 
L 676.59616 364.305391 
L 675.898994 364.692678 
L 674.064804 365.552255 
L 673.708614 365.689685 
L 672.230615 366.235004 
L 670.396425 366.76513 
L 668.944178 367.073979 
L 668.562235 367.151859 
L 666.728045 367.400006 
L 664.893855 367.523594 
L 663.059665 367.528474 
L 661.225475 367.420133 
L 659.391285 367.203727 
z
" clip-path="url(#p3f5ef4e4c8)" style="fill: none; stroke: #91a3ac; stroke-width: 1.5"/>
    <path d="M 666.728045 394.78114 
L 666.544613 394.759865 
L 664.893855 394.567339 
L 663.059665 394.278551 
L 661.225475 393.917522 
L 659.391285 393.486546 
L 658.986475 393.375571 
L 657.557095 392.981595 
L 655.722905 392.408323 
L 654.52775 391.991276 
L 653.888715 391.767085 
L 652.054525 391.055894 
L 650.993233 390.606982 
L 650.220335 390.278305 
L 648.386145 389.43346 
L 647.961431 389.222688 
L 646.551955 388.519481 
L 645.273843 387.838394 
L 644.717765 387.540479 
L 642.883575 386.494752 
L 642.816449 386.454099 
L 641.049385 385.378222 
L 640.569605 385.069805 
L 639.215196 384.194483 
L 638.467188 383.685511 
L 637.381006 382.942448 
L 636.488486 382.301216 
L 635.546816 381.621006 
L 634.616566 380.916922 
L 633.712626 380.229022 
L 632.837451 379.532628 
L 631.878436 378.765338 
L 631.139501 378.148334 
L 630.044246 377.228767 
L 629.512943 376.764039 
L 628.210056 375.618097 
L 627.949515 375.379745 
L 626.445363 373.995451 
L 626.375866 373.931028 
L 625.005384 372.611156 
L 624.541676 372.162027 
L 623.611027 371.226862 
L 622.707486 370.313733 
L 622.25752 369.842568 
L 620.943656 368.458273 
L 620.873296 368.383497 
L 619.682942 367.073979 
L 619.039106 366.361512 
L 618.451931 365.689685 
L 617.249537 364.305391 
L 617.204916 364.253514 
L 616.09556 362.921096 
L 615.370726 362.045228 
L 614.963031 361.536802 
L 613.862092 360.152508 
L 613.536536 359.739502 
L 612.794119 358.768213 
L 611.742887 357.383919 
L 611.702346 357.329922 
L 610.73315 355.999625 
L 609.868156 354.804728 
L 609.734995 354.61533 
L 608.772925 353.231036 
L 608.033966 352.159763 
L 607.824125 351.846742 
L 606.906873 350.462448 
L 606.199777 349.38647 
L 606.002744 349.078153 
L 605.12898 347.693859 
L 604.365587 346.474239 
L 604.265294 346.309565 
L 603.433734 344.92527 
L 602.6092 343.540976 
L 602.531397 343.408447 
L 601.816074 342.156682 
L 601.032875 340.772387 
L 600.697207 340.171215 
L 600.271344 339.388093 
L 599.528261 338.003799 
L 598.863017 336.750517 
L 598.795252 336.619505 
L 598.091112 335.23521 
L 597.395155 333.850916 
L 597.028827 333.111365 
L 596.717513 332.466622 
L 596.059658 331.082327 
L 595.410422 329.698033 
L 595.194637 329.229792 
L 594.782983 328.313739 
L 594.171006 326.929445 
L 593.568071 325.54515 
L 593.360447 325.059225 
L 592.98602 324.160856 
L 592.4195 322.776562 
L 591.862427 321.392267 
L 591.526257 320.540341 
L 591.321275 320.007973 
L 590.799777 318.623679 
L 590.288114 317.239384 
L 589.786456 315.85509 
L 589.692067 315.587999 
L 589.306749 314.470796 
L 588.840035 313.086502 
L 588.383703 311.702207 
L 587.937932 310.317913 
L 587.857877 310.061985 
L 587.513351 308.933619 
L 587.10186 307.549324 
L 586.701296 306.16503 
L 586.311844 304.780736 
L 586.023687 303.724459 
L 585.936324 303.396441 
L 585.58046 302.012147 
L 585.236063 300.627853 
L 584.903329 299.243559 
L 584.582452 297.859264 
L 584.273636 296.47497 
L 584.189497 296.080607 
L 583.983319 295.090676 
L 583.707662 293.706381 
L 583.444417 292.322087 
L 583.193793 290.937793 
L 582.956004 289.553498 
L 582.731269 288.169204 
L 582.519814 286.78491 
L 582.355307 285.633366 
L 582.322856 285.400616 
L 582.144143 284.016321 
L 581.979056 282.632027 
L 581.827828 281.247733 
L 581.690696 279.863438 
L 581.567903 278.479144 
L 581.459698 277.09485 
L 581.366336 275.710555 
L 581.288077 274.326261 
L 581.225187 272.941967 
L 581.17794 271.557673 
L 581.146615 270.173378 
L 581.131498 268.789084 
L 581.132882 267.40479 
L 581.151068 266.020495 
L 581.186362 264.636201 
L 581.239079 263.251907 
L 581.309543 261.867613 
L 581.398084 260.483318 
L 581.505042 259.099024 
L 581.630763 257.71473 
L 581.775604 256.330435 
L 581.939931 254.946141 
L 582.124118 253.561847 
L 582.32855 252.177552 
L 582.355307 252.012045 
L 582.560693 250.793258 
L 582.815692 249.408964 
L 583.093047 248.02467 
L 583.393219 246.640375 
L 583.716682 245.256081 
L 584.063921 243.871787 
L 584.189497 243.401713 
L 584.444926 242.487492 
L 584.856707 241.103198 
L 585.295028 239.718904 
L 585.760481 238.334609 
L 586.023687 237.593272 
L 586.263195 236.950315 
L 586.806595 235.566021 
L 587.380581 234.181727 
L 587.857877 233.088348 
L 587.991553 232.797432 
L 588.657431 231.413138 
L 589.358132 230.028844 
L 589.692067 229.398196 
L 590.11369 228.644549 
L 590.92402 227.260255 
L 591.526257 226.277365 
L 591.787083 225.875961 
L 592.724665 224.491666 
L 593.360447 223.593297 
L 593.72671 223.107372 
L 594.813703 221.723078 
L 595.194637 221.256911 
L 595.997678 220.338784 
L 597.028827 219.207867 
L 597.277335 218.954489 
L 598.688213 217.570195 
L 598.863017 217.404887 
L 600.258953 216.185901 
L 600.697207 215.817292 
L 602.014025 214.801606 
L 602.531397 214.416721 
L 604.008423 213.417312 
L 604.365587 213.183931 
L 606.199777 212.103641 
L 606.333893 212.033018 
L 608.033966 211.167085 
L 609.192723 210.648724 
L 609.868156 210.356148 
L 611.702346 209.666689 
L 612.964978 209.264429 
L 613.536536 209.087863 
L 615.370726 208.61778 
L 617.204916 208.24542 
L 619.039106 207.967362 
L 619.889289 207.880135 
L 620.873296 207.78205 
L 622.707486 207.684612 
L 624.541676 207.670667 
L 626.375866 207.737467 
L 628.181247 207.880135 
L 628.210056 207.882424 
L 630.044246 208.106578 
L 631.878436 208.405043 
L 633.712626 208.775438 
L 635.546816 209.215487 
L 635.722025 209.264429 
L 637.381006 209.730353 
L 639.215196 210.312254 
L 640.165638 210.648724 
L 641.049385 210.963266 
L 642.883575 211.682658 
L 643.702319 212.033018 
L 644.717765 212.469877 
L 646.551955 213.322514 
L 646.741144 213.417312 
L 648.386145 214.245977 
L 649.419542 214.801606 
L 650.220335 215.234476 
L 651.875971 216.185901 
L 652.054525 216.28906 
L 653.888715 217.413318 
L 654.131009 217.570195 
L 655.722905 218.606411 
L 656.231014 218.954489 
L 657.557095 219.867806 
L 658.208488 220.338784 
L 659.391285 221.198611 
L 660.080079 221.723078 
L 661.225475 222.59996 
L 661.859548 223.107372 
L 663.059665 224.073011 
L 663.558372 224.491666 
L 664.893855 225.618948 
L 665.186196 225.875961 
L 666.728045 227.23898 
L 666.751188 227.260255 
L 668.245911 228.644549 
L 668.562235 228.939201 
L 669.68845 230.028844 
L 670.396425 230.717724 
L 671.085451 231.413138 
L 672.230615 232.575532 
L 672.441648 232.797432 
L 673.748065 234.181727 
L 674.064804 234.519756 
L 675.01207 235.566021 
L 675.898994 236.551406 
L 676.246317 236.950315 
L 677.442287 238.334609 
L 677.733184 238.674099 
L 678.59992 239.718904 
L 679.567374 240.892195 
L 679.735987 241.103198 
L 680.831375 242.487492 
L 681.401564 243.213355 
L 681.903183 243.871787 
L 682.949226 245.256081 
L 683.235754 245.638975 
L 683.963031 246.640375 
L 684.961236 248.02467 
L 685.069944 248.177177 
L 685.922656 249.408964 
L 686.874479 250.793258 
L 686.904134 250.836941 
L 687.788568 252.177552 
L 688.69541 253.561847 
L 688.738324 253.628233 
L 689.566723 254.946141 
L 690.429936 256.330435 
L 690.572514 256.562138 
L 691.262583 257.71473 
L 692.083468 259.099024 
L 692.406704 259.651022 
L 692.881167 260.483318 
L 693.660977 261.867613 
L 694.240894 262.908721 
L 694.427093 263.251907 
L 695.167032 264.636201 
L 695.899097 266.020495 
L 696.075084 266.358526 
L 696.605847 267.40479 
L 697.298893 268.789084 
L 697.909274 270.023899 
L 697.981308 270.173378 
L 698.636475 271.557673 
L 699.283027 272.941967 
L 699.743464 273.94298 
L 699.915394 274.326261 
L 700.524902 275.710555 
L 701.125378 277.09485 
L 701.577654 278.155157 
L 701.712472 278.479144 
L 702.276738 279.863438 
L 702.831571 281.247733 
L 703.376806 282.632027 
L 703.411844 282.723099 
L 703.897304 284.016321 
L 704.40694 285.400616 
L 704.906589 286.78491 
L 705.246034 287.746555 
L 705.391647 288.169204 
L 705.856545 289.553498 
L 706.31108 290.937793 
L 706.755077 292.322087 
L 707.080223 293.362379 
L 707.185185 293.706381 
L 707.595089 295.090676 
L 707.99409 296.47497 
L 708.382005 297.859264 
L 708.758646 299.243559 
L 708.914413 299.835961 
L 709.11769 300.627853 
L 709.46076 302.012147 
L 709.792199 303.396441 
L 710.111812 304.780736 
L 710.419399 306.16503 
L 710.714753 307.549324 
L 710.748603 307.715788 
L 710.990346 308.933619 
L 711.252576 310.317913 
L 711.502223 311.702207 
L 711.739074 313.086502 
L 711.962912 314.470796 
L 712.173515 315.85509 
L 712.370653 317.239384 
L 712.554095 318.623679 
L 712.582793 318.859173 
L 712.719401 320.007973 
L 712.870045 321.392267 
L 713.006642 322.776562 
L 713.128951 324.160856 
L 713.236726 325.54515 
L 713.329713 326.929445 
L 713.407654 328.313739 
L 713.470285 329.698033 
L 713.517335 331.082327 
L 713.548526 332.466622 
L 713.563576 333.850916 
L 713.562193 335.23521 
L 713.54408 336.619505 
L 713.508932 338.003799 
L 713.456436 339.388093 
L 713.386273 340.772387 
L 713.298115 342.156682 
L 713.191626 343.540976 
L 713.066462 344.92527 
L 712.922268 346.309565 
L 712.758684 347.693859 
L 712.582793 349.022201 
L 712.575076 349.078153 
L 712.364411 350.462448 
L 712.132388 351.846742 
L 711.878574 353.231036 
L 711.602526 354.61533 
L 711.303787 355.999625 
L 710.981891 357.383919 
L 710.748603 358.320612 
L 710.632076 358.768213 
L 710.248182 360.152508 
L 709.838484 361.536802 
L 709.402414 362.921096 
L 708.939386 364.305391 
L 708.914413 364.376353 
L 708.429628 365.689685 
L 707.889182 367.073979 
L 707.318366 368.458273 
L 707.080223 369.008584 
L 706.700448 369.842568 
L 706.038439 371.226862 
L 705.341879 372.611156 
L 705.246034 372.793753 
L 704.579823 373.995451 
L 703.774575 375.379745 
L 703.411844 375.977042 
L 702.905193 376.764039 
L 701.973897 378.148334 
L 701.577654 378.713385 
L 700.966056 379.532628 
L 699.886911 380.916922 
L 699.743464 381.094144 
L 698.698226 382.301216 
L 697.909274 383.17514 
L 697.413949 383.685511 
L 696.075084 385.010956 
L 696.010816 385.069805 
L 694.442375 386.454099 
L 694.240894 386.625456 
L 692.687006 387.838394 
L 692.406704 388.049408 
L 690.694869 389.222688 
L 690.572514 389.303668 
L 688.738324 390.401031 
L 688.353123 390.606982 
L 686.904134 391.356299 
L 685.508629 391.991276 
L 685.069944 392.184549 
L 683.235754 392.88849 
L 681.740326 393.375571 
L 681.401564 393.482556 
L 679.567374 393.96581 
L 677.733184 394.350877 
L 675.898994 394.6412 
L 674.809633 394.759865 
L 674.064804 394.838688 
L 672.230615 394.947365 
L 670.396425 394.972178 
L 668.562235 394.915889 
L 666.728045 394.78114 
z
" clip-path="url(#p3f5ef4e4c8)" style="fill: none; stroke: #91a3ac; stroke-width: 1.5"/>
    <path d="M 647.361317 425.21434 
L 644.680898 423.830045 
L 639.849879 421.061457 
L 637.381006 419.526546 
L 633.475791 416.908574 
L 629.665022 414.139985 
L 626.118596 411.371397 
L 621.21022 407.218514 
L 618.167597 404.449925 
L 613.881872 400.297042 
L 611.194548 397.528454 
L 607.380413 393.375571 
L 603.79747 389.222688 
L 600.419089 385.069805 
L 596.206033 379.532628 
L 592.281989 373.995451 
L 588.620677 368.458273 
L 585.198911 362.921096 
L 581.996152 357.383919 
L 578.283841 350.462448 
L 574.868485 343.540976 
L 571.73825 336.619505 
L 569.423369 331.082327 
L 566.768992 324.160856 
L 564.359301 317.239384 
L 562.179218 310.269644 
L 560.272008 303.396441 
L 558.510838 296.123845 
L 557.149852 289.553498 
L 555.950465 282.632027 
L 554.993731 275.710555 
L 554.415051 270.173378 
L 553.925916 263.251907 
L 553.707673 256.330435 
L 553.739818 250.793258 
L 553.966143 245.256081 
L 554.396983 239.718904 
L 555.048349 234.181727 
L 555.944209 228.644549 
L 557.098044 223.107372 
L 558.541404 217.570195 
L 560.318883 212.033018 
L 561.902082 207.880135 
L 563.725103 203.727252 
L 565.096274 200.958663 
L 566.602414 198.190075 
L 568.263091 195.421486 
L 570.101847 192.652898 
L 572.147265 189.884309 
L 574.434389 187.11572 
L 577.013659 184.347132 
L 579.978344 181.578543 
L 582.355307 179.62015 
L 585.41282 177.42566 
M 647.334636 177.42566 
L 650.220335 178.92072 
L 654.844925 181.578543 
L 659.195122 184.347132 
L 661.225475 185.732124 
L 665.034247 188.500015 
L 668.581064 191.268603 
L 673.483502 195.421486 
L 676.528983 198.190075 
L 680.812091 202.342958 
L 684.802744 206.495841 
L 688.537489 210.648724 
L 692.047028 214.801606 
L 695.357338 218.954489 
L 698.490551 223.107372 
L 702.413727 228.644549 
L 706.075065 234.181727 
L 709.497602 239.718904 
L 712.701749 245.256081 
L 716.413882 252.177552 
L 719.919553 259.292631 
L 722.956425 266.020495 
L 725.422123 271.930757 
L 727.927208 278.479144 
L 730.335289 285.400616 
L 732.500249 292.322087 
L 734.422959 299.243559 
L 736.104288 306.16503 
L 737.545099 313.086502 
L 738.746251 320.007973 
L 739.70029 326.929445 
L 740.400899 333.850916 
L 740.835953 340.772387 
L 740.987892 346.309565 
L 740.955838 351.846742 
L 740.730198 357.383919 
L 740.3007 362.921096 
L 739.645595 368.458273 
L 738.752646 373.995451 
L 737.596517 379.532628 
L 736.151686 385.069805 
L 734.593073 389.985115 
L 733.343547 393.375571 
L 731.604604 397.528454 
L 729.600782 401.681337 
L 728.093254 404.449925 
L 726.431768 407.218514 
L 724.592984 409.987102 
L 722.548589 412.755691 
L 719.919553 415.917979 
L 717.678398 418.292868 
L 714.416983 421.3274 
L 711.260799 423.830045 
L 709.286314 425.21434 
L 709.286314 425.21434 
" clip-path="url(#p3f5ef4e4c8)" style="fill: none; stroke: #91a3ac; stroke-width: 1.5"/>
    <path d="M 585.404802 425.21434 
L 580.521117 419.181133 
L 575.626604 412.755691 
L 571.350168 406.819618 
L 566.911204 400.297042 
L 562.464222 393.375571 
L 558.510838 386.855953 
L 554.327344 379.532628 
L 550.604034 372.611156 
L 547.094054 365.689685 
L 543.15271 357.383919 
L 539.491154 349.078153 
L 536.098401 340.772387 
L 532.832179 332.096161 
L 530.091799 324.160856 
L 527.461852 315.85509 
L 525.45964 308.933619 
L 523.283614 300.627853 
L 521.349755 292.322087 
L 519.659482 284.016321 
L 518.158659 275.351533 
L 517.025853 267.40479 
L 516.08834 259.099024 
L 515.418083 250.793258 
L 515.065546 243.871787 
L 514.909243 236.950315 
L 514.9581 230.028844 
L 515.221595 223.107372 
L 515.709795 216.185901 
L 516.435275 209.264429 
L 517.422629 202.342958 
L 518.40641 196.805781 
L 519.582767 191.268603 
L 520.96409 185.731426 
L 522.566542 180.194249 
L 523.455389 177.42566 
M 709.292134 177.42566 
L 714.416983 183.767813 
L 719.068787 189.884309 
L 723.587933 196.166854 
L 727.785259 202.342958 
L 732.230476 209.264429 
L 736.427263 216.194221 
L 741.130202 224.491666 
L 744.810036 231.413138 
L 748.277792 238.334609 
L 751.543861 245.256081 
L 755.205421 253.561847 
L 758.598712 261.867613 
L 761.728505 270.173378 
L 764.144087 277.09485 
L 766.810803 285.400616 
L 769.235106 293.706381 
L 771.413519 302.012147 
L 773.347187 310.317913 
L 775.037742 318.623679 
L 776.479318 326.929445 
L 777.488934 333.850916 
L 778.470182 342.156682 
L 779.084364 349.078153 
L 779.512144 355.999625 
L 779.74749 362.921096 
L 779.781719 369.842568 
L 779.605619 376.764039 
L 779.209405 383.685511 
L 778.58215 390.606982 
L 777.698849 397.528454 
L 776.553272 404.449925 
L 775.114589 411.371397 
L 773.732193 416.908574 
L 772.129162 422.445751 
L 771.241926 425.21434 
L 771.241926 425.21434 
" clip-path="url(#p3f5ef4e4c8)" style="fill: none; stroke: #91a3ac; stroke-width: 1.5"/>
    <path d="M 550.616933 425.21434 
L 545.671508 417.686118 
L 540.882085 409.987102 
L 536.500559 402.569509 
L 532.129034 394.759865 
L 527.730002 386.454099 
L 523.578848 378.148334 
L 519.040043 368.458273 
L 515.394648 360.152508 
L 511.969452 351.846742 
L 508.757436 343.540976 
L 505.275316 333.850916 
L 502.075136 324.160856 
L 499.549001 315.85509 
L 496.856698 306.16503 
L 494.7631 297.859264 
L 492.868921 289.553498 
L 492.48 287.736494 
M 744.079824 177.42566 
L 749.519454 185.731426 
L 754.769162 194.234555 
L 759.490257 202.342958 
L 764.063354 210.648724 
L 768.375256 218.954489 
L 772.444662 227.260255 
L 776.279562 235.566021 
L 779.887598 243.871787 
L 783.276084 252.177552 
L 786.452024 260.483318 
L 789.893762 270.173378 
L 793.056359 279.863438 
L 795.547678 288.169204 
L 798.202017 297.859264 
L 800.26254 306.16503 
L 802.1234 314.470796 
L 803.783633 322.776562 
L 805.242271 331.082327 
L 806.498337 339.388093 
L 807.545774 347.693859 
L 808.381503 355.999625 
L 808.999216 364.305391 
L 809.394757 372.611156 
L 809.558355 380.916922 
L 809.479657 389.222688 
L 809.147683 397.528454 
L 808.669179 404.449925 
L 807.96067 411.714086 
L 807.119742 418.292868 
L 806.028204 425.21434 
L 806.028204 425.21434 
" clip-path="url(#p3f5ef4e4c8)" style="fill: none; stroke: #91a3ac; stroke-width: 1.5"/>
   </g>
   <g id="patch_9">
    <path d="M 492.48 425.21434 
L 492.48 177.42566 
" style="fill: none; stroke: #000000; stroke-width: 1.1; stroke-linejoin: miter; stroke-linecap: square"/>
   </g>
   <g id="patch_10">
    <path d="M 492.48 425.21434 
L 820.8 425.21434 
" style="fill: none; stroke: #000000; stroke-width: 1.1; stroke-linejoin: miter; stroke-linecap: square"/>
   </g>
   <g id="patch_11">
    <path d="M 769.453872 240.267026 
Q 709.297092 270.345416 650.740312 299.623806 
" style="fill: none; stroke: #235a78; stroke-width: 1.6; stroke-linecap: round"/>
    <path d="M 655.659662 299.623806 
L 650.740312 299.623806 
L 653.691922 295.688326 
" style="fill: none; stroke: #235a78; stroke-width: 1.6; stroke-linecap: round"/>
   </g>
   <g id="text_31">
    <text style="font-size: 10px; font-family: 'DejaVu Sans'; text-anchor: start; fill: #235a78" x="709.295094" y="270.346415" transform="rotate(-0 709.295094 270.346415)">Newton step</text>
   </g>
   <g id="patch_12">
    <path d="M 773.071112 238.562912 
Q 792.924314 229.77078 811.141878 221.703001 
" style="fill: none; stroke: #a23b34; stroke-width: 1.6; stroke-linecap: round"/>
    <path d="M 806.227903 221.473108 
L 811.141878 221.703001 
L 808.009578 225.496245 
" style="fill: none; stroke: #a23b34; stroke-width: 1.6; stroke-linecap: round"/>
   </g>
   <g id="text_32">
    <text style="font-size: 10px; font-family: 'DejaVu Sans'; text-anchor: start; fill: #a23b34" x="792.923774" y="229.771019" transform="rotate(-0 792.923774 229.771019)">∇h</text>
   </g>
   <g id="text_33">
    <text style="font-size: 11px; font-family: 'DejaVu Sans'; text-anchor: middle" x="656.64" y="171.42566" transform="rotate(-0 656.64 171.42566)">2D quadratic: step to the basin minimum</text>
   </g>
   <g id="PathCollection_5">
    <g clip-path="url(#p3f5ef4e4c8)">
     <use xlink:href="#m41d90d0b37" x="647.347925" y="301.32" style="fill: #a23b34; stroke: #a23b34"/>
    </g>
   </g>
  </g>
  <g id="text_34">
   <text style="font-weight: 700; font-size: 18px; font-family: 'DejaVu Sans'; text-anchor: start; fill: #23313d" x="38.88" y="32.4" transform="rotate(-0 38.88 32.4)">Newton minimization uses slope and curvature</text>
  </g>
  <g id="text_35">
   <text style="font-size: 9px; font-family: 'DejaVu Sans'; text-anchor: start; fill: #59636c" x="38.88" y="630.504" transform="rotate(-0 38.88 630.504)">0140  •  FIG-01-26-004</text>
  </g>
 </g>
 <defs>
  <clipPath id="pedbe747c35">
   <rect x="43.2" y="129.6" width="354.24" height="343.44"/>
  </clipPath>
  <clipPath id="p3f5ef4e4c8">
   <rect x="492.48" y="177.42566" width="328.32" height="247.788679"/>
  </clipPath>
 </defs>
</svg>
