<?xml version="1.0" encoding="utf-8" standalone="no"?>
<!DOCTYPE svg PUBLIC "-//W3C//DTD SVG 1.1//EN"
  "http://www.w3.org/Graphics/SVG/1.1/DTD/svg11.dtd">
<svg xmlns:xlink="http://www.w3.org/1999/xlink" width="864pt" height="648pt" viewBox="0 0 864 648" xmlns="http://www.w3.org/2000/svg" version="1.1">
 <metadata>
  <rdf:RDF xmlns:dc="http://purl.org/dc/elements/1.1/" xmlns:cc="http://creativecommons.org/ns#" xmlns:rdf="http://www.w3.org/1999/02/22-rdf-syntax-ns#">
   <cc:Work>
    <dc:type rdf:resource="http://purl.org/dc/dcmitype/StillImage"/>
    <dc:date>2026-10-08T08:02:39.868237</dc:date>
    <dc:format>image/svg+xml</dc:format>
    <dc:creator>
     <cc:Agent>
      <dc:title>Matplotlib v3.10.8, https://matplotlib.org/</dc:title>
     </cc:Agent>
    </dc:creator>
   </cc:Work>
  </rdf:RDF>
 </metadata>
 <defs>
  <style type="text/css">*{stroke-linejoin: round; stroke-linecap: butt}</style>
 </defs>
 <g id="figure_1">
  <g id="patch_1">
   <path d="M 0 648 
L 864 648 
L 864 0 
L 0 0 
z
" style="fill: #ffffff"/>
  </g>
  <g id="axes_1">
   <g id="patch_2">
    <path d="M 38.88 118.9728 
L 196.128 118.9728 
L 196.128 201.3984 
L 38.88 201.3984 
z
" clip-path="url(#pc425c918f8)" style="fill: #edf3f6; stroke: #235a78; stroke-width: 1.2; stroke-linejoin: miter"/>
   </g>
   <g id="patch_3">
    <path d="M 198.127432 160.1856 
Q 247.234807 160.1856 294.888738 160.1856 
" clip-path="url(#pc425c918f8)" style="fill: none; stroke: #23313d; stroke-width: 1.3; stroke-linecap: round"/>
    <path d="M 290.088738 157.7856 
L 294.888738 160.1856 
L 290.088738 162.5856 
z
" clip-path="url(#pc425c918f8)" style="fill: #23313d; stroke: #23313d; stroke-width: 1.3; stroke-linecap: round"/>
   </g>
   <g id="patch_4">
    <path d="M 298.3392 118.9728 
L 455.5872 118.9728 
L 455.5872 201.3984 
L 298.3392 201.3984 
z
" clip-path="url(#pc425c918f8)" style="fill: #edf3f6; stroke: #235a78; stroke-width: 1.2; stroke-linejoin: miter"/>
   </g>
   <g id="patch_5">
    <path d="M 457.196727 161.372018 
Q 549.937155 229.733051 641.507636 297.23169 
" clip-path="url(#pc425c918f8)" style="fill: none; stroke: #23313d; stroke-width: 1.3; stroke-linecap: round"/>
    <path d="M 639.067913 292.451758 
L 641.507636 297.23169 
L 636.219856 296.315509 
z
" clip-path="url(#pc425c918f8)" style="fill: #23313d; stroke: #23313d; stroke-width: 1.3; stroke-linecap: round"/>
   </g>
   <g id="patch_6">
    <path d="M 38.88 258.066 
L 196.128 258.066 
L 196.128 340.4916 
L 38.88 340.4916 
z
" clip-path="url(#pc425c918f8)" style="fill: #edf3f6; stroke: #235a78; stroke-width: 1.2; stroke-linejoin: miter"/>
   </g>
   <g id="patch_7">
    <path d="M 198.127432 299.2788 
Q 247.234807 299.2788 294.888738 299.2788 
" clip-path="url(#pc425c918f8)" style="fill: none; stroke: #23313d; stroke-width: 1.3; stroke-linecap: round"/>
    <path d="M 290.088738 296.8788 
L 294.888738 299.2788 
L 290.088738 301.6788 
z
" clip-path="url(#pc425c918f8)" style="fill: #23313d; stroke: #23313d; stroke-width: 1.3; stroke-linecap: round"/>
   </g>
   <g id="patch_8">
    <path d="M 298.3392 258.066 
L 455.5872 258.066 
L 455.5872 340.4916 
L 298.3392 340.4916 
z
" clip-path="url(#pc425c918f8)" style="fill: #edf3f6; stroke: #235a78; stroke-width: 1.2; stroke-linejoin: miter"/>
   </g>
   <g id="patch_9">
    <path d="M 457.588311 299.2788 
Q 549.935216 299.2788 640.828676 299.2788 
" clip-path="url(#pc425c918f8)" style="fill: none; stroke: #23313d; stroke-width: 1.3; stroke-linecap: round"/>
    <path d="M 636.028676 296.8788 
L 640.828676 299.2788 
L 636.028676 301.6788 
z
" clip-path="url(#pc425c918f8)" style="fill: #23313d; stroke: #23313d; stroke-width: 1.3; stroke-linecap: round"/>
   </g>
   <g id="patch_10">
    <path d="M 38.88 397.1592 
L 196.128 397.1592 
L 196.128 479.5848 
L 38.88 479.5848 
z
" clip-path="url(#pc425c918f8)" style="fill: #edf3f6; stroke: #235a78; stroke-width: 1.2; stroke-linejoin: miter"/>
   </g>
   <g id="patch_11">
    <path d="M 198.127432 438.372 
Q 247.234807 438.372 294.888738 438.372 
" clip-path="url(#pc425c918f8)" style="fill: none; stroke: #23313d; stroke-width: 1.3; stroke-linecap: round"/>
    <path d="M 290.088738 435.972 
L 294.888738 438.372 
L 290.088738 440.772 
z
" clip-path="url(#pc425c918f8)" style="fill: #23313d; stroke: #23313d; stroke-width: 1.3; stroke-linecap: round"/>
   </g>
   <g id="patch_12">
    <path d="M 298.3392 397.1592 
L 455.5872 397.1592 
L 455.5872 479.5848 
L 298.3392 479.5848 
z
" clip-path="url(#pc425c918f8)" style="fill: #edf3f6; stroke: #235a78; stroke-width: 1.2; stroke-linejoin: miter"/>
   </g>
   <g id="patch_13">
    <path d="M 457.196727 437.185582 
Q 549.937155 368.824549 641.507636 301.32591 
" clip-path="url(#pc425c918f8)" style="fill: none; stroke: #23313d; stroke-width: 1.3; stroke-linecap: round"/>
    <path d="M 636.219856 302.242091 
L 641.507636 301.32591 
L 639.067913 306.105842 
z
" clip-path="url(#pc425c918f8)" style="fill: #23313d; stroke: #23313d; stroke-width: 1.3; stroke-linecap: round"/>
   </g>
   <g id="patch_14">
    <path d="M 644.2848 247.7628 
L 825.12 247.7628 
L 825.12 350.7948 
L 644.2848 350.7948 
z
" clip-path="url(#pc425c918f8)" style="fill: #edf3f6; stroke: #235a78; stroke-width: 1.2; stroke-linejoin: miter"/>
   </g>
   <g id="text_1">
    <text style="font-size: 22px; font-family: 'DejaVu Sans'; text-anchor: middle; fill: #23313d" x="117.504" y="166.256225" transform="rotate(-0 117.504 166.256225)">X1</text>
   </g>
   <g id="text_2">
    <text style="font-size: 20px; font-family: 'DejaVu Sans'; text-anchor: middle; fill: #23313d" x="376.9632" y="165.70435" transform="rotate(-0 376.9632 165.70435)">× a1</text>
   </g>
   <g id="text_3">
    <text style="font-size: 22px; font-family: 'DejaVu Sans'; text-anchor: middle; fill: #23313d" x="117.504" y="305.349425" transform="rotate(-0 117.504 305.349425)">X2</text>
   </g>
   <g id="text_4">
    <text style="font-size: 20px; font-family: 'DejaVu Sans'; text-anchor: middle; fill: #23313d" x="376.9632" y="304.79755" transform="rotate(-0 376.9632 304.79755)">× a2</text>
   </g>
   <g id="text_5">
    <text style="font-size: 22px; font-family: 'DejaVu Sans'; text-anchor: middle; fill: #23313d" x="117.504" y="444.442625" transform="rotate(-0 117.504 444.442625)">X3</text>
   </g>
   <g id="text_6">
    <text style="font-size: 20px; font-family: 'DejaVu Sans'; text-anchor: middle; fill: #23313d" x="376.9632" y="443.89075" transform="rotate(-0 376.9632 443.89075)">× a3</text>
   </g>
   <g id="text_7">
    <text style="font-size: 18px; font-family: 'DejaVu Sans'; text-anchor: middle; fill: #23313d" x="734.7024" y="304.245675" transform="rotate(-0 734.7024 304.245675)">Y = Σ aᵢXᵢ</text>
   </g>
   <g id="text_8">
    <text style="font-size: 19px; font-family: 'DejaVu Sans'; text-anchor: middle; fill: #23313d" x="589.248" y="144.822013" transform="rotate(-0 589.248 144.822013)">E[Y] = Σ aᵢμᵢ</text>
   </g>
   <g id="text_9">
    <text style="font-size: 20px; font-family: 'DejaVu Sans'; text-anchor: middle; fill: #23313d" x="604.9728" y="474.80035" transform="rotate(-0 604.9728 474.80035)">Var(Y) = Σ aᵢ²σᵢ²</text>
   </g>
   <g id="text_10">
    <text style="font-size: 10px; font-family: 'DejaVu Sans'; text-anchor: middle; fill: #23313d" x="432" y="585.376175" transform="rotate(-0 432 585.376175)">Variance formula requires independence (uncorrelated variables also suffice); otherwise add covariance terms.</text>
   </g>
  </g>
  <g id="text_11">
   <text style="font-weight: 700; font-size: 18px; font-family: 'DejaVu Sans'; text-anchor: start; fill: #23313d" x="38.88" y="32.4" transform="rotate(-0 38.88 32.4)">Independent weighted variables combine means and variances</text>
  </g>
  <g id="text_12">
   <text style="font-size: 9px; font-family: 'DejaVu Sans'; text-anchor: start; fill: #59636c" x="38.88" y="630.504" transform="rotate(-0 38.88 630.504)">0163  •  FIG-01-29-006</text>
  </g>
 </g>
 <defs>
  <clipPath id="pc425c918f8">
   <rect x="38.88" y="77.76" width="786.24" height="515.16"/>
  </clipPath>
 </defs>
</svg>
