<?xml version="1.0" encoding="utf-8" standalone="no"?>
<!DOCTYPE svg PUBLIC "-//W3C//DTD SVG 1.1//EN"
  "http://www.w3.org/Graphics/SVG/1.1/DTD/svg11.dtd">
<svg xmlns:xlink="http://www.w3.org/1999/xlink" width="936pt" height="720pt" viewBox="0 0 936 720" xmlns="http://www.w3.org/2000/svg" version="1.1">
 <metadata>
  <rdf:RDF xmlns:dc="http://purl.org/dc/elements/1.1/" xmlns:cc="http://creativecommons.org/ns#" xmlns:rdf="http://www.w3.org/1999/02/22-rdf-syntax-ns#">
   <cc:Work>
    <dc:type rdf:resource="http://purl.org/dc/dcmitype/StillImage"/>
    <dc:date>2026-10-08T11:56:47.373222</dc:date>
    <dc:format>image/svg+xml</dc:format>
    <dc:creator>
     <cc:Agent>
      <dc:title>Matplotlib v3.10.8, https://matplotlib.org/</dc:title>
     </cc:Agent>
    </dc:creator>
   </cc:Work>
  </rdf:RDF>
 </metadata>
 <defs>
  <style type="text/css">*{stroke-linejoin: round; stroke-linecap: butt}</style>
 </defs>
 <g id="figure_1">
  <g id="patch_1">
   <path d="M 0 720 
L 936 720 
L 936 0 
L 0 0 
z
" style="fill: #ffffff"/>
  </g>
  <g id="axes_1">
   <g id="text_1">
    <text style="font-size: 17px; font-family: 'DejaVu Sans'; text-anchor: middle; fill: #23313d" x="468" y="572.482937" transform="rotate(-0 468 572.482937)">Retain external loads and support reactions; replace each cut member by an axial force.</text>
   </g>
  </g>
  <g id="axes_2">
   <g id="patch_2">
    <path d="M 86.245714 376.701429 
L 76.818857 388.956343 
L 95.672571 388.956343 
z
" clip-path="url(#p9eecc6f43b)" style="fill: #edf3f6; stroke: #23313d; stroke-width: 1.2; stroke-linejoin: miter"/>
   </g>
   <g id="patch_3">
    <path d="M 400.474286 376.701429 
L 391.047429 388.956343 
L 409.901143 388.956343 
z
" clip-path="url(#p9eecc6f43b)" style="fill: #edf3f6; stroke: #23313d; stroke-width: 1.2; stroke-linejoin: miter"/>
   </g>
   <g id="patch_4">
    <path d="M 394.818171 394.612457 
C 395.443179 394.612457 396.042673 394.364139 396.48462 393.922192 
C 396.926567 393.480244 397.174886 392.880751 397.174886 392.255743 
C 397.174886 391.630735 396.926567 391.031242 396.48462 390.589294 
C 396.042673 390.147347 395.443179 389.899029 394.818171 389.899029 
C 394.193163 389.899029 393.59367 390.147347 393.151723 390.589294 
C 392.709775 391.031242 392.461457 391.630735 392.461457 392.255743 
C 392.461457 392.880751 392.709775 393.480244 393.151723 393.922192 
C 393.59367 394.364139 394.193163 394.612457 394.818171 394.612457 
z
" clip-path="url(#p9eecc6f43b)" style="fill: #ffffff; stroke: #23313d; stroke-linejoin: miter"/>
   </g>
   <g id="patch_5">
    <path d="M 406.1304 394.612457 
C 406.755408 394.612457 407.354901 394.364139 407.796849 393.922192 
C 408.238796 393.480244 408.487114 392.880751 408.487114 392.255743 
C 408.487114 391.630735 408.238796 391.031242 407.796849 390.589294 
C 407.354901 390.147347 406.755408 389.899029 406.1304 389.899029 
C 405.505392 389.899029 404.905899 390.147347 404.463951 390.589294 
C 404.022004 391.031242 403.773686 391.630735 403.773686 392.255743 
C 403.773686 392.880751 404.022004 393.480244 404.463951 393.922192 
C 404.905899 394.364139 405.505392 394.612457 406.1304 394.612457 
z
" clip-path="url(#p9eecc6f43b)" style="fill: #ffffff; stroke: #23313d; stroke-linejoin: miter"/>
   </g>
   <g id="line2d_1">
    <path d="M 86.245714 376.701429 
L 243.36 376.701429 
" clip-path="url(#p9eecc6f43b)" style="fill: none; stroke: #235a78; stroke-width: 2; stroke-linecap: square"/>
   </g>
   <g id="line2d_2">
    <path d="M 243.36 376.701429 
L 400.474286 376.701429 
" clip-path="url(#p9eecc6f43b)" style="fill: none; stroke: #235a78; stroke-width: 2; stroke-linecap: square"/>
   </g>
   <g id="line2d_3">
    <path d="M 86.245714 376.701429 
L 164.802857 258.865714 
" clip-path="url(#p9eecc6f43b)" style="fill: none; stroke: #235a78; stroke-width: 2; stroke-linecap: square"/>
   </g>
   <g id="line2d_4">
    <path d="M 164.802857 258.865714 
L 243.36 376.701429 
" clip-path="url(#p9eecc6f43b)" style="fill: none; stroke: #235a78; stroke-width: 2; stroke-linecap: square"/>
   </g>
   <g id="line2d_5">
    <path d="M 164.802857 258.865714 
L 321.917143 258.865714 
" clip-path="url(#p9eecc6f43b)" style="fill: none; stroke: #235a78; stroke-width: 2; stroke-linecap: square"/>
   </g>
   <g id="line2d_6">
    <path d="M 243.36 376.701429 
L 321.917143 258.865714 
" clip-path="url(#p9eecc6f43b)" style="fill: none; stroke: #235a78; stroke-width: 2; stroke-linecap: square"/>
   </g>
   <g id="line2d_7">
    <path d="M 321.917143 258.865714 
L 400.474286 376.701429 
" clip-path="url(#p9eecc6f43b)" style="fill: none; stroke: #235a78; stroke-width: 2; stroke-linecap: square"/>
   </g>
   <g id="line2d_8">
    <path d="M 72.105429 390.841714 
L 100.386 390.841714 
" clip-path="url(#p9eecc6f43b)" style="fill: none; stroke: #23313d; stroke-linecap: square"/>
   </g>
   <g id="line2d_9">
    <path d="M 386.334 395.555143 
L 414.614571 395.555143 
" clip-path="url(#p9eecc6f43b)" style="fill: none; stroke: #23313d; stroke-linecap: square"/>
   </g>
   <g id="line2d_10">
    <path d="M 204.081429 408.124286 
L 204.081429 172.452857 
" clip-path="url(#p9eecc6f43b)" style="fill: none; stroke-dasharray: 7.4,3.2; stroke-dashoffset: 0; stroke: #a23b34; stroke-width: 2"/>
   </g>
   <g id="text_2">
    <text style="font-size: 12px; font-family: 'DejaVu Sans'; text-anchor: start; fill: #23313d" x="90.173571" y="398.866393" transform="rotate(-0 90.173571 398.866393)">A</text>
   </g>
   <g id="text_3">
    <text style="font-size: 12px; font-family: 'DejaVu Sans'; text-anchor: start; fill: #23313d" x="247.287857" y="398.866393" transform="rotate(-0 247.287857 398.866393)">B</text>
   </g>
   <g id="text_4">
    <text style="font-size: 12px; font-family: 'DejaVu Sans'; text-anchor: start; fill: #23313d" x="404.402143" y="398.866393" transform="rotate(-0 404.402143 398.866393)">C</text>
   </g>
   <g id="text_5">
    <text style="font-size: 12px; font-family: 'DejaVu Sans'; text-anchor: start; fill: #23313d" x="168.730714" y="248.036679" transform="rotate(-0 168.730714 248.036679)">D</text>
   </g>
   <g id="text_6">
    <text style="font-size: 12px; font-family: 'DejaVu Sans'; text-anchor: start; fill: #23313d" x="325.845" y="248.036679" transform="rotate(-0 325.845 248.036679)">E</text>
   </g>
   <g id="text_7">
    <text style="font-size: 11px; font-family: 'DejaVu Sans'; text-anchor: start; fill: #a23b34" x="175.015286" y="218.694598" transform="rotate(-0 175.015286 218.694598)">10 kN</text>
   </g>
   <g id="text_8">
    <text style="font-size: 11px; font-family: 'DejaVu Sans'; text-anchor: start; fill: #a23b34" x="332.129571" y="218.694598" transform="rotate(-0 332.129571 218.694598)">10 kN</text>
   </g>
   <g id="text_9">
    <text style="font-size: 13px; font-family: 'DejaVu Sans'; text-anchor: middle; fill: #a23b34" x="204.081429" y="168.18433" transform="rotate(-0 204.081429 168.18433)">CUT</text>
   </g>
   <g id="text_10">
    <text style="font-size: 14px; font-family: 'DejaVu Sans'; text-anchor: middle; fill: #23313d" x="243.36" y="443.410268" transform="rotate(-0 243.36 443.410268)">Cut AB, DB, and DE</text>
   </g>
   <g id="patch_6">
    <path d="M 164.802857 198.018451 
Q 164.802857 227.441207 164.802857 254.963306 
" clip-path="url(#p9eecc6f43b)" style="fill: none; stroke: #a23b34; stroke-width: 1.7; stroke-linecap: round"/>
    <path d="M 167.802857 248.963306 
L 164.802857 254.963306 
L 161.802857 248.963306 
z
" clip-path="url(#p9eecc6f43b)" style="fill: #a23b34; stroke: #a23b34; stroke-width: 1.7; stroke-linecap: round"/>
   </g>
   <g id="patch_7">
    <path d="M 321.917143 198.018451 
Q 321.917143 227.441207 321.917143 254.963306 
" clip-path="url(#p9eecc6f43b)" style="fill: none; stroke: #a23b34; stroke-width: 1.7; stroke-linecap: round"/>
    <path d="M 324.917143 248.963306 
L 321.917143 254.963306 
L 318.917143 248.963306 
z
" clip-path="url(#p9eecc6f43b)" style="fill: #a23b34; stroke: #a23b34; stroke-width: 1.7; stroke-linecap: round"/>
   </g>
   <g id="PathCollection_1">
    <defs>
     <path id="m7b2ea0d59c" d="M 0 2.236068 
C 0.593012 2.236068 1.161816 2.000462 1.581139 1.581139 
C 2.000462 1.161816 2.236068 0.593012 2.236068 0 
C 2.236068 -0.593012 2.000462 -1.161816 1.581139 -1.581139 
C 1.161816 -2.000462 0.593012 -2.236068 0 -2.236068 
C -0.593012 -2.236068 -1.161816 -2.000462 -1.581139 -1.581139 
C -2.000462 -1.161816 -2.236068 -0.593012 -2.236068 0 
C -2.236068 0.593012 -2.000462 1.161816 -1.581139 1.581139 
C -1.161816 2.000462 -0.593012 2.236068 0 2.236068 
z
" style="stroke: #23313d"/>
    </defs>
    <g clip-path="url(#p9eecc6f43b)">
     <use xlink:href="#m7b2ea0d59c" x="86.245714" y="376.701429" style="fill: #23313d; stroke: #23313d"/>
    </g>
   </g>
   <g id="PathCollection_2">
    <g clip-path="url(#p9eecc6f43b)">
     <use xlink:href="#m7b2ea0d59c" x="243.36" y="376.701429" style="fill: #23313d; stroke: #23313d"/>
    </g>
   </g>
   <g id="PathCollection_3">
    <g clip-path="url(#p9eecc6f43b)">
     <use xlink:href="#m7b2ea0d59c" x="400.474286" y="376.701429" style="fill: #23313d; stroke: #23313d"/>
    </g>
   </g>
   <g id="PathCollection_4">
    <g clip-path="url(#p9eecc6f43b)">
     <use xlink:href="#m7b2ea0d59c" x="164.802857" y="258.865714" style="fill: #23313d; stroke: #23313d"/>
    </g>
   </g>
   <g id="PathCollection_5">
    <g clip-path="url(#p9eecc6f43b)">
     <use xlink:href="#m7b2ea0d59c" x="321.917143" y="258.865714" style="fill: #23313d; stroke: #23313d"/>
    </g>
   </g>
  </g>
  <g id="axes_3">
   <g id="patch_8">
    <path d="M 603.948293 373.170732 
L 594.465366 385.498537 
L 613.43122 385.498537 
z
" clip-path="url(#p689185e364)" style="fill: #edf3f6; stroke: #23313d; stroke-width: 1.2; stroke-linejoin: miter"/>
   </g>
   <g id="line2d_11">
    <path d="M 603.948293 373.170732 
L 682.972683 254.634146 
" clip-path="url(#p689185e364)" style="fill: none; stroke: #235a78; stroke-width: 2; stroke-linecap: square"/>
   </g>
   <g id="line2d_12">
    <path d="M 603.948293 373.170732 
L 722.484878 373.170732 
" clip-path="url(#p689185e364)" style="fill: none; stroke: #235a78; stroke-width: 2; stroke-linecap: square"/>
   </g>
   <g id="line2d_13">
    <path d="M 682.972683 254.634146 
L 722.484878 254.634146 
" clip-path="url(#p689185e364)" style="fill: none; stroke: #235a78; stroke-width: 2; stroke-linecap: square"/>
   </g>
   <g id="line2d_14">
    <path d="M 682.972683 254.634146 
L 722.484878 313.902439 
" clip-path="url(#p689185e364)" style="fill: none; stroke: #235a78; stroke-width: 2; stroke-linecap: square"/>
   </g>
   <g id="line2d_15">
    <path d="M 589.723902 387.395122 
L 618.172683 387.395122 
" clip-path="url(#p689185e364)" style="fill: none; stroke: #23313d; stroke-linecap: square"/>
   </g>
   <g id="line2d_16">
    <path d="M 722.484878 396.878049 
L 722.484878 215.121951 
" clip-path="url(#p689185e364)" style="fill: none; stroke-dasharray: 5.55,2.4; stroke-dashoffset: 0; stroke: #a23b34; stroke-opacity: 0.5; stroke-width: 1.5"/>
   </g>
   <g id="text_11">
    <text style="font-size: 12px; font-family: 'DejaVu Sans'; text-anchor: start; fill: #26776f" x="568.387317" y="419.945396" transform="rotate(-0 568.387317 419.945396)">10</text>
   </g>
   <g id="text_12">
    <text style="font-size: 12px; font-family: 'DejaVu Sans'; text-anchor: start; fill: #a23b34" x="694.826341" y="202.628323" transform="rotate(-0 694.826341 202.628323)">10</text>
   </g>
   <g id="text_13">
    <text style="font-size: 13px; font-family: 'DejaVu Sans'; text-anchor: start; fill: #23313d" x="592.094634" y="362.533529" transform="rotate(-0 592.094634 362.533529)">A</text>
   </g>
   <g id="text_14">
    <text style="font-size: 13px; font-family: 'DejaVu Sans'; text-anchor: start; fill: #23313d" x="663.216585" y="242.416456" transform="rotate(-0 663.216585 242.416456)">D</text>
   </g>
   <g id="text_15">
    <text style="font-size: 12px; font-family: 'DejaVu Sans'; text-anchor: start; fill: #235a78" x="795.977561" y="360.343354" transform="rotate(-0 795.977561 360.343354)">F_AB</text>
   </g>
   <g id="text_16">
    <text style="font-size: 12px; font-family: 'DejaVu Sans'; text-anchor: start; fill: #b47722" x="764.367805" y="327.15311" transform="rotate(-0 764.367805 327.15311)">F_DB</text>
   </g>
   <g id="text_17">
    <text style="font-size: 12px; font-family: 'DejaVu Sans'; text-anchor: start; fill: #26776f" x="795.977561" y="241.806768" transform="rotate(-0 795.977561 241.806768)">F_DE</text>
   </g>
   <g id="text_18">
    <text style="font-weight: 700; font-size: 15px; font-family: 'DejaVu Sans'; text-anchor: middle; fill: #23313d" x="698.777561" y="156.041502" transform="rotate(-0 698.777561 156.041502)">LEFT SECTION FBD</text>
   </g>
   <g id="patch_9">
    <path d="M 603.948293 442.29151 
Q 603.948293 408.733085 603.948293 377.075318 
" clip-path="url(#p689185e364)" style="fill: none; stroke: #26776f; stroke-width: 1.7; stroke-linecap: round"/>
    <path d="M 600.948293 383.075318 
L 603.948293 377.075318 
L 606.948293 383.075318 
z
" clip-path="url(#p689185e364)" style="fill: #26776f; stroke: #26776f; stroke-width: 1.7; stroke-linecap: round"/>
   </g>
   <g id="patch_10">
    <path d="M 682.972683 185.513368 
Q 682.972683 219.071793 682.972683 250.72956 
" clip-path="url(#p689185e364)" style="fill: none; stroke: #a23b34; stroke-width: 1.7; stroke-linecap: round"/>
    <path d="M 685.972683 244.72956 
L 682.972683 250.72956 
L 679.972683 244.72956 
z
" clip-path="url(#p689185e364)" style="fill: #a23b34; stroke: #a23b34; stroke-width: 1.7; stroke-linecap: round"/>
   </g>
   <g id="patch_11">
    <path d="M 724.481469 373.170732 
Q 756.068094 373.170732 785.754061 373.170732 
" clip-path="url(#p689185e364)" style="fill: none; stroke: #235a78; stroke-width: 1.7; stroke-linecap: round"/>
    <path d="M 779.754061 370.170732 
L 785.754061 373.170732 
L 779.754061 376.170732 
z
" clip-path="url(#p689185e364)" style="fill: #235a78; stroke: #235a78; stroke-width: 1.7; stroke-linecap: round"/>
   </g>
   <g id="patch_12">
    <path d="M 723.59312 315.564802 
Q 737.103072 335.829731 749.55873 354.513217 
" clip-path="url(#p689185e364)" style="fill: none; stroke: #b47722; stroke-width: 1.7; stroke-linecap: round"/>
    <path d="M 748.726679 347.856814 
L 749.55873 354.513217 
L 743.734378 351.185015 
z
" clip-path="url(#p689185e364)" style="fill: #b47722; stroke: #b47722; stroke-width: 1.7; stroke-linecap: round"/>
   </g>
   <g id="patch_13">
    <path d="M 724.481469 254.634146 
Q 756.068094 254.634146 785.754061 254.634146 
" clip-path="url(#p689185e364)" style="fill: none; stroke: #26776f; stroke-width: 1.7; stroke-linecap: round"/>
    <path d="M 779.754061 251.634146 
L 785.754061 254.634146 
L 779.754061 257.634146 
z
" clip-path="url(#p689185e364)" style="fill: #26776f; stroke: #26776f; stroke-width: 1.7; stroke-linecap: round"/>
   </g>
   <g id="PathCollection_6">
    <defs>
     <path id="m0051aeee60" d="M 0 2.345208 
C 0.621956 2.345208 1.218523 2.098102 1.658312 1.658312 
C 2.098102 1.218523 2.345208 0.621956 2.345208 0 
C 2.345208 -0.621956 2.098102 -1.218523 1.658312 -1.658312 
C 1.218523 -2.098102 0.621956 -2.345208 0 -2.345208 
C -0.621956 -2.345208 -1.218523 -2.098102 -1.658312 -1.658312 
C -2.098102 -1.218523 -2.345208 -0.621956 -2.345208 0 
C -2.345208 0.621956 -2.098102 1.218523 -1.658312 1.658312 
C -1.218523 2.098102 -0.621956 2.345208 0 2.345208 
z
" style="stroke: #23313d"/>
    </defs>
    <g clip-path="url(#p689185e364)">
     <use xlink:href="#m0051aeee60" x="603.948293" y="373.170732" style="fill: #23313d; stroke: #23313d"/>
    </g>
   </g>
   <g id="PathCollection_7">
    <g clip-path="url(#p689185e364)">
     <use xlink:href="#m0051aeee60" x="682.972683" y="254.634146" style="fill: #23313d; stroke: #23313d"/>
    </g>
   </g>
  </g>
  <g id="text_19">
   <text style="font-weight: 700; font-size: 17px; font-family: 'DejaVu Sans'; text-anchor: start; fill: #23313d" x="51.48" y="39.6" transform="rotate(-0 51.48 39.6)">A section exposes the axial forces in the cut truss members</text>
  </g>
  <g id="text_20">
   <text style="font-size: 9px; font-family: 'DejaVu Sans'; text-anchor: start; fill: #59636c" x="51.48" y="700.56" transform="rotate(-0 51.48 700.56)">0431  •  FIG-02-27-001</text>
  </g>
  <g id="text_21">
   <text style="font-size: 10px; font-family: 'DejaVu Sans'; text-anchor: middle; fill: #23313d" x="468" y="660.24" transform="rotate(-0 468 660.24)">Illustrative Warren truss from figure 416. Positive member forces are assumed tension, pulling away from the retained section.</text>
  </g>
 </g>
 <defs>
  <clipPath id="p9eecc6f43b">
   <rect x="23.4" y="148.885714" width="439.92" height="314.228571"/>
  </clipPath>
  <clipPath id="p689185e364">
   <rect x="548.63122" y="144" width="316.097561" height="324"/>
  </clipPath>
 </defs>
</svg>
